<svg width="68" height="21" viewBox="0 0 68 21" fill="none" xmlns="http://www.w3.org/2000/svg">
<path d="M11.3775 17.5627H14.5191L12.3915 5.82363L12.4247 5.75488H9.18336L2.28516 17.5627H5.5431L6.5903 15.758H11.0451L11.3775 17.5627ZM7.88683 13.5408L9.98123 9.94863L10.6461 13.5408H7.88683ZM15.7572 17.5627H20.0291C24.3177 17.5627 27.9081 14.4002 27.9081 10.6361C27.9081 7.78301 25.5477 5.75488 22.2233 5.75488H18.1342L15.7572 17.5627ZM19.1315 14.8986L20.4447 8.41894H22.2897C23.8855 8.41894 25.0158 9.38144 25.0158 10.7564C25.0158 13.008 23.0876 14.8986 20.8104 14.8986H19.1315ZM28.4024 17.5627H32.6743C36.9628 17.5627 40.5532 14.4002 40.5532 10.6361C40.5532 7.78301 38.1929 5.75488 34.8684 5.75488H30.7793L28.4024 17.5627ZM31.7767 14.8986L33.0898 8.41894H34.9349C36.5306 8.41894 37.6609 9.38144 37.6609 10.7564C37.6609 13.008 35.7328 14.8986 33.4555 14.8986H31.7767Z" fill="#020051"/>
<path d="M41.0469 17.5627H43.8893L45.3022 10.7221L47.3799 16.8752L51.8846 10.7221L50.4717 17.5627H53.3141L55.6911 5.75488H52.8154L48.2609 11.908L46.233 5.75488H43.4239L41.0469 17.5627ZM66.3305 8.38457L66.8624 5.75488H57.8698L55.4928 17.5627H64.4854L65.0173 14.933H58.8837L59.2827 12.8533H64.8677L65.3996 10.2236H59.8478L60.1803 8.38457H66.3305Z" fill="#3CDB84"/>
<path d="M3.62502 7.09375C5.21069 7.09375 6.49613 5.7646 6.49613 4.125C6.49613 2.4854 5.21069 1.15625 3.62502 1.15625C2.03935 1.15625 0.753906 2.4854 0.753906 4.125C0.753906 5.7646 2.03935 7.09375 3.62502 7.09375Z" fill="#3CDB84" stroke="#3CDB84"/>
<path d="M5.32635 4.15502H3.93371V2.70752H3.38971V4.15502H1.99707V4.71002H3.38971V6.15002H3.93371V4.71002H5.32635V4.15502Z" fill="#020051"/>
<path d="M0.416016 10.977L1.42239 7.43848L2.14306 7.85188L0.416016 10.977Z" fill="#3CDB84"/>
<path d="M1.68359 10.4731L2.37753 8.03662L2.8756 8.32303L1.68359 10.4731Z" fill="#3CDB84"/>
</svg>
