<svg width="28" height="24" viewBox="0 0 28 24" fill="none" xmlns="http://www.w3.org/2000/svg">
<path d="M20 8.58982e-08C18.8357 8.58982e-08 17.6873 0.271088 16.6459 0.791796C15.6045 1.3125 14.6986 2.06853 14 3C13.0555 1.74071 11.7388 0.8105 10.2363 0.341148C8.73374 -0.128203 7.12163 -0.112905 5.62829 0.384875C4.13495 0.882656 2.83609 1.83768 1.91568 3.11467C0.99528 4.39166 0.5 5.92588 0.5 7.5C0.5 16.4875 12.9875 23.575 13.5125 23.875C13.6613 23.9586 13.8294 24.0017 14 24C14.1708 24.0029 14.3392 23.9597 14.4875 23.875C16.7871 22.5306 18.944 20.9559 20.925 19.175C25.2875 15.25 27.5 11.325 27.5 7.5C27.5 5.51088 26.7098 3.60322 25.3033 2.1967C23.8968 0.790176 21.9891 8.58982e-08 20 8.58982e-08Z" fill="#2B3F3A"/>
</svg>
