<svg width="31" height="31" viewBox="0 0 31 31" fill="none" xmlns="http://www.w3.org/2000/svg">
<g clip-path="url(#clip0_611_6996)">
<path d="M15.5 27.125C21.9203 27.125 27.125 21.9203 27.125 15.5C27.125 9.07969 21.9203 3.875 15.5 3.875C9.07969 3.875 3.875 9.07969 3.875 15.5C3.875 21.9203 9.07969 27.125 15.5 27.125Z" stroke="#3CDB84" stroke-width="2" stroke-linecap="round" stroke-linejoin="round"/>
<path d="M11.1406 14.5312C11.9432 14.5312 12.5938 13.8807 12.5938 13.0781C12.5938 12.2756 11.9432 11.625 11.1406 11.625C10.3381 11.625 9.6875 12.2756 9.6875 13.0781C9.6875 13.8807 10.3381 14.5312 11.1406 14.5312Z" fill="#3CDB84"/>
<path d="M19.8594 14.5312C20.6619 14.5312 21.3125 13.8807 21.3125 13.0781C21.3125 12.2756 20.6619 11.625 19.8594 11.625C19.0568 11.625 18.4062 12.2756 18.4062 13.0781C18.4062 13.8807 19.0568 14.5312 19.8594 14.5312Z" fill="#3CDB84"/>
<path d="M20.5375 18.4064L10.4625 18.4062" stroke="#3CDB84" stroke-width="2" stroke-linecap="round" stroke-linejoin="round"/>
</g>
<defs>
<clipPath id="clip0_611_6996">
<rect width="31" height="31" fill="white"/>
</clipPath>
</defs>
</svg>
