<svg width="24" height="24" viewBox="0 0 24 24" fill="none" xmlns="http://www.w3.org/2000/svg">
<path d="M11.3906 12.7672H12.7446H16.5133V11.4131H12.7446H11.3906H7.48646V12.7672H11.3906ZM11.9999 21.0268C10.7662 21.0268 9.60025 20.7898 8.50198 20.3159C7.40371 19.842 6.4446 19.1951 5.62466 18.3751C4.80472 17.5552 4.1578 16.5961 3.68389 15.4978C3.20998 14.3995 2.97302 13.226 2.97302 11.9773C2.97302 10.7436 3.20998 9.57768 3.68389 8.47941C4.1578 7.38114 4.80472 6.4258 5.62466 5.61338C6.4446 4.80096 7.40371 4.1578 8.50198 3.68389C9.60025 3.20998 10.7737 2.97302 12.0225 2.97302C13.2561 2.97302 14.4221 3.20998 15.5204 3.68389C16.6186 4.1578 17.574 4.80096 18.3864 5.61338C19.1988 6.4258 19.842 7.38114 20.3159 8.47941C20.7898 9.57768 21.0268 10.7512 21.0268 11.9999C21.0268 13.2336 20.7898 14.3995 20.3159 15.4978C19.842 16.5961 19.1988 17.5552 18.3864 18.3751C17.574 19.1951 16.6186 19.842 15.5204 20.3159C14.4221 20.7898 13.2486 21.0268 11.9999 21.0268ZM12.0225 19.6727C14.1438 19.6727 15.9491 18.9242 17.4386 17.4273C18.928 15.9303 19.6727 14.1137 19.6727 11.9773C19.6727 9.85601 18.928 8.05063 17.4386 6.5612C15.9491 5.07177 14.1362 4.32705 11.9999 4.32705C9.87858 4.32705 8.06944 5.07177 6.57249 6.5612C5.07553 8.05063 4.32705 9.86353 4.32705 11.9999C4.32705 14.1212 5.07553 15.9303 6.57249 17.4273C8.06944 18.9242 9.8861 19.6727 12.0225 19.6727Z" fill="white"/>
<path d="M11.2268 11.4179L11.2268 12.7719L11.2268 16.5407L12.5808 16.5407L12.5808 12.7719L12.5808 11.4179L12.5808 7.5138L11.2268 7.5138L11.2268 11.4179ZM2.96717 12.0272C2.96717 10.7936 3.20413 9.62759 3.67804 8.52932C4.15195 7.43105 4.79887 6.47195 5.61881 5.65201C6.43875 4.83207 7.39786 4.18514 8.49613 3.71123C9.5944 3.23732 10.7679 3.00037 12.0166 3.00037C13.2503 3.00037 14.4162 3.23732 15.5145 3.71123C16.6128 4.18514 17.5681 4.83207 18.3805 5.65201C19.193 6.47195 19.8361 7.43105 20.31 8.52932C20.7839 9.62759 21.0209 10.8011 21.0209 12.0498C21.0209 13.2835 20.7839 14.4494 20.31 15.5477C19.8361 16.646 19.193 17.6013 18.3805 18.4137C17.5681 19.2262 16.6128 19.8693 15.5145 20.3432C14.4162 20.8171 13.2428 21.0541 11.994 21.0541C10.7604 21.0541 9.5944 20.8171 8.49613 20.3432C7.39786 19.8693 6.43875 19.2262 5.61881 18.4137C4.79887 17.6013 4.15195 16.646 3.67804 15.5477C3.20413 14.4494 2.96717 13.2759 2.96717 12.0272ZM4.3212 12.0498C4.3212 14.1711 5.06968 15.9765 6.56663 17.4659C8.06359 18.9554 9.88025 19.7001 12.0166 19.7001C14.1379 19.7001 15.9433 18.9554 17.4327 17.4659C18.9222 15.9765 19.6669 14.1636 19.6669 12.0272C19.6669 9.90592 18.9222 8.09678 17.4327 6.59983C15.9433 5.10287 14.1304 4.3544 11.994 4.3544C9.87273 4.3544 8.06359 5.10287 6.56663 6.59983C5.06968 8.09678 4.3212 9.91344 4.3212 12.0498Z" fill="white"/>
</svg>
