<svg width="20" height="20" viewBox="0 0 20 20" fill="none" xmlns="http://www.w3.org/2000/svg">
<path d="M9.39064 10.7673H10.7447H14.5134V9.41326H10.7447H9.39064H5.48652V10.7673H9.39064ZM9.99995 19.0269C8.76628 19.0269 7.60031 18.7899 6.50204 18.316C5.40377 17.8421 4.44467 17.1952 3.62473 16.3752C2.80479 15.5553 2.15786 14.5962 1.68395 13.4979C1.21004 12.3997 0.973083 11.2262 0.973083 9.97744C0.973083 8.74377 1.21004 7.5778 1.68395 6.47953C2.15786 5.38126 2.80479 4.42592 3.62473 3.6135C4.44467 2.80108 5.40377 2.15792 6.50204 1.68401C7.60031 1.2101 8.7738 0.973145 10.0225 0.973145C11.2562 0.973145 12.4222 1.2101 13.5204 1.68401C14.6187 2.15792 15.574 2.80108 16.3865 3.6135C17.1989 4.42592 17.842 5.38126 18.3159 6.47953C18.7899 7.5778 19.0268 8.75129 19.0268 10C19.0268 11.2337 18.7899 12.3997 18.3159 13.4979C17.842 14.5962 17.1989 15.5553 16.3865 16.3752C15.574 17.1952 14.6187 17.8421 13.5204 18.316C12.4222 18.7899 11.2487 19.0269 9.99995 19.0269ZM10.0225 17.6728C12.1438 17.6728 13.9492 16.9244 15.4386 15.4274C16.9281 13.9305 17.6728 12.1138 17.6728 9.97744C17.6728 7.85613 16.9281 6.05076 15.4386 4.56132C13.9492 3.07189 12.1363 2.32717 9.99995 2.32717C7.87864 2.32717 6.0695 3.07189 4.57255 4.56132C3.07559 6.05076 2.32711 7.86365 2.32711 10C2.32711 12.1213 3.07559 13.9305 4.57255 15.4274C6.0695 16.9244 7.88616 17.6728 10.0225 17.6728Z" fill="#819892"/>
</svg>
