<svg width="28" height="28" viewBox="0 0 28 28" fill="none" xmlns="http://www.w3.org/2000/svg">
<g clip-path="url(#clip0_696_5594)">
<path d="M7.875 14C7.875 14.2321 7.96719 14.4546 8.13128 14.6187C8.29538 14.7828 8.51794 14.875 8.75 14.875H19.25C19.4821 14.875 19.7046 14.7828 19.8687 14.6187C20.0328 14.4546 20.125 14.2321 20.125 14C20.125 13.7679 20.0328 13.5454 19.8687 13.3813C19.7046 13.2172 19.4821 13.125 19.25 13.125H8.75C8.51794 13.125 8.29538 13.2172 8.13128 13.3813C7.96719 13.5454 7.875 13.7679 7.875 14Z" fill="#2B3F3A"/>
<path d="M11.375 18.375H7C5.83968 18.375 4.72688 17.9141 3.90641 17.0936C3.08594 16.2731 2.625 15.1603 2.625 14C2.625 12.8397 3.08594 11.7269 3.90641 10.9064C4.72688 10.0859 5.83968 9.625 7 9.625H11.375C11.6071 9.625 11.8296 9.53281 11.9937 9.36872C12.1578 9.20462 12.25 8.98206 12.25 8.75C12.25 8.51794 12.1578 8.29538 11.9937 8.13128C11.8296 7.96719 11.6071 7.875 11.375 7.875H7C5.37555 7.875 3.81763 8.52031 2.66897 9.66897C1.52031 10.8176 0.875 12.3755 0.875 14C0.875 15.6245 1.52031 17.1824 2.66897 18.331C3.81763 19.4797 5.37555 20.125 7 20.125H11.375C11.6071 20.125 11.8296 20.0328 11.9937 19.8687C12.1578 19.7046 12.25 19.4821 12.25 19.25C12.25 19.0179 12.1578 18.7954 11.9937 18.6313C11.8296 18.4672 11.6071 18.375 11.375 18.375Z" fill="#2B3F3A"/>
<path d="M21 7.875H16.625C16.3929 7.875 16.1704 7.96719 16.0063 8.13128C15.8422 8.29538 15.75 8.51794 15.75 8.75C15.75 8.98206 15.8422 9.20462 16.0063 9.36872C16.1704 9.53281 16.3929 9.625 16.625 9.625H21C22.1603 9.625 23.2731 10.0859 24.0936 10.9064C24.9141 11.7269 25.375 12.8397 25.375 14C25.375 15.1603 24.9141 16.2731 24.0936 17.0936C23.2731 17.9141 22.1603 18.375 21 18.375H16.625C16.3929 18.375 16.1704 18.4672 16.0063 18.6313C15.8422 18.7954 15.75 19.0179 15.75 19.25C15.75 19.4821 15.8422 19.7046 16.0063 19.8687C16.1704 20.0328 16.3929 20.125 16.625 20.125H21C22.6245 20.125 24.1824 19.4797 25.331 18.331C26.4797 17.1824 27.125 15.6245 27.125 14C27.125 12.3755 26.4797 10.8176 25.331 9.66897C24.1824 8.52031 22.6245 7.875 21 7.875Z" fill="#2B3F3A"/>
</g>
<defs>
<clipPath id="clip0_696_5594">
<rect width="28" height="28" fill="white"/>
</clipPath>
</defs>
</svg>
