<?xml version="1.0"?>
<svg version="1.1" xmlns="http://www.w3.org/2000/svg" width="150" height="40" style="border: dashed 2px #aaa"><path fill="#" d="M23.52,27.92c0,0.12-0.09,0.18-0.225,0.18l-1.365,0c-0.27,0-0.45-0.075-0.585-0.3l-2.16-3.525l-1.155,0l0,3.45c0,0.225-0.09,0.375-0.345,0.375l-1.23,0c-0.255,0-0.36-0.12-0.36-0.375l0-9.57c0-0.33,0.075-0.435,0.405-0.435l2.22,0c1.305,0,2.685,0.195,3.48,1.11c0.48,0.555,0.72,1.29,0.72,2.1c0,1.38-0.735,2.46-1.935,2.985l2.46,3.795c0.045,0.075,0.075,0.15,0.075,0.21z M20.955,20.96c0-1.305-0.87-1.77-2.175-1.77l-0.75,0l0,3.63l0.93,0c1.2,0,1.995-0.645,1.995-1.86z M32.0775,24.44c0,0.36-0.12,0.435-0.495,0.435l-4.395,0c0.12,1.155,0.96,1.95,2.145,1.95c0.63,0,1.29-0.15,1.845-0.36c0.06-0.015,0.105-0.045,0.165-0.045c0.105,0,0.18,0.06,0.21,0.18l0.21,0.765c0.015,0.075,0.03,0.135,0.03,0.18c0,0.105-0.06,0.18-0.24,0.255c-0.735,0.33-1.74,0.48-2.52,0.48c-2.355,0-3.75-1.5-3.75-3.84c0-2.25,1.485-3.81,3.72-3.81c0.915,0,1.665,0.345,2.19,0.9c0.69,0.72,0.885,1.665,0.885,2.685l0,0.225z M30.2925,23.69l0-0.165c-0.03-0.78-0.48-1.5-1.395-1.5c-0.975,0-1.56,0.78-1.68,1.665l3.075,0z M41.4,27.815c0,0.18-0.12,0.285-0.3,0.285l-0.72,0c-0.78,0-1.125-0.375-1.23-0.885l-0.03,0c-0.375,0.555-1.35,1.065-2.175,1.065c-2.115,0-3.075-1.74-3.075-3.69c0-2.595,1.56-3.96,3.24-3.96c0.795,0,1.545,0.36,1.92,0.87l0.03-0.405c0.015-0.165,0.135-0.27,0.315-0.27l1.05,0c0.195,0,0.315,0.105,0.315,0.33l0,5.205c0,0.21,0.03,0.36,0.09,0.435c0.045,0.045,0.105,0.06,0.18,0.06l0.12,0c0.18,0,0.27,0.06,0.27,0.255l0,0.705z M38.925,25.775l0-2.895c-0.3-0.435-0.915-0.765-1.485-0.765c-0.915,0-1.695,0.78-1.695,2.355c0,1.26,0.48,2.325,1.59,2.325c0.735,0,1.365-0.555,1.59-1.02z M49.0725,27.59c0,0.12-0.075,0.18-0.21,0.24c-0.72,0.33-1.38,0.45-2.175,0.45c-2.31,0-3.585-1.44-3.585-3.75c0-2.325,1.395-3.9,3.72-3.9c0.675,0,1.38,0.135,2.01,0.42c0.12,0.06,0.18,0.09,0.18,0.21c0,0.045-0.015,0.135-0.03,0.18l-0.195,0.795c-0.03,0.135-0.09,0.21-0.18,0.21c-0.045,0-0.105-0.03-0.165-0.06c-0.435-0.18-0.915-0.33-1.44-0.33c-1.29,0-2.025,0.915-2.025,2.385c0,1.44,0.66,2.43,1.95,2.43c0.645,0,1.05-0.12,1.575-0.33c0.045-0.015,0.105-0.045,0.15-0.045c0.09,0,0.15,0.075,0.18,0.18l0.195,0.66c0.03,0.105,0.045,0.195,0.045,0.255z M55.725,27.65c0,0.15-0.075,0.225-0.225,0.285c-0.465,0.195-1.08,0.345-1.68,0.345c-0.765,0-1.425-0.195-1.8-0.63c-0.465-0.525-0.48-1.14-0.48-2.235l0-3.345l-0.705,0c-0.285,0-0.33-0.06-0.33-0.375l0-0.57c0-0.18,0.09-0.3,0.27-0.3l0.765,0l0-1.635c0-0.255,0.135-0.33,0.375-0.36l1.08-0.135l0.075,0c0.195,0,0.285,0.105,0.285,0.33l0,1.8l1.695,0c0.18,0,0.285,0.06,0.285,0.255l0,0.705c0,0.18-0.12,0.285-0.3,0.285l-1.68,0l0,3.435c0,0.45,0.03,0.78,0.195,1.02c0.135,0.195,0.345,0.315,0.705,0.315c0.375,0,0.69-0.09,0.96-0.18c0.06-0.015,0.105-0.03,0.15-0.03c0.105,0,0.165,0.06,0.195,0.18l0.15,0.75c0.015,0.045,0.015,0.06,0.015,0.09z"/><path fill="#" d="M70.4225,18.095l-0.105,0.87c-0.03,0.255-0.195,0.315-0.465,0.315l-2.715,0l0,8.475c0,0.285-0.06,0.345-0.315,0.345l-1.32,0c-0.27,0-0.315-0.06-0.315-0.33l0-8.49l-2.805,0c-0.255,0-0.345-0.105-0.345-0.36l0-0.885c0-0.225,0.105-0.315,0.33-0.315l7.59,0c0.39,0,0.495,0.12,0.465,0.375z M79.1,24.455c0,2.16-1.32,3.825-3.66,3.825c-2.445,0-3.57-1.65-3.57-3.84c0-2.16,1.32-3.81,3.66-3.81c2.445,0,3.57,1.62,3.57,3.825z M77.225,24.455c0-1.23-0.39-2.4-1.71-2.4c-1.335,0-1.77,1.155-1.77,2.355c0,1.23,0.375,2.445,1.71,2.445c1.32,0,1.77-1.17,1.77-2.4z M88.2425,24.455c0,2.16-1.32,3.825-3.66,3.825c-2.445,0-3.57-1.65-3.57-3.84c0-2.16,1.32-3.81,3.66-3.81c2.445,0,3.57,1.62,3.57,3.825z M86.3675,24.455c0-1.23-0.39-2.4-1.71-2.4c-1.335,0-1.77,1.155-1.77,2.355c0,1.23,0.375,2.445,1.71,2.445c1.32,0,1.77-1.17,1.77-2.4z M92.405,27.725c0,0.255-0.12,0.375-0.33,0.375l-1.14,0c-0.21,0-0.345-0.105-0.345-0.36l0-9.84c0-0.255,0.105-0.33,0.3-0.36l1.08-0.15c0.03,0,0.075-0.015,0.105-0.015c0.18,0,0.33,0.09,0.33,0.33l0,10.02z M100.0325,25.955c0,1.575-1.365,2.325-2.895,2.325c-0.78,0-1.635-0.225-2.31-0.525c-0.135-0.06-0.18-0.15-0.18-0.24c0-0.045,0.015-0.09,0.03-0.135l0.24-0.765c0.045-0.15,0.12-0.21,0.21-0.21c0.045,0,0.09,0,0.165,0.03c0.66,0.27,1.365,0.465,1.89,0.465c0.66,0,1.11-0.3,1.11-0.795c0-0.42-0.285-0.645-0.9-0.885l-1.185-0.45c-0.855-0.315-1.545-0.975-1.545-1.995c0-1.47,1.38-2.145,2.715-2.145c0.72,0,1.425,0.12,2.175,0.45c0.12,0.06,0.18,0.12,0.18,0.21c0,0.045-0.015,0.09-0.03,0.15l-0.255,0.81c-0.03,0.105-0.105,0.165-0.21,0.165c-0.045,0-0.105-0.015-0.15-0.03c-0.495-0.195-1.14-0.36-1.62-0.36c-0.63,0-0.945,0.345-0.945,0.69c0,0.33,0.165,0.54,0.735,0.765l1.35,0.555c0.795,0.33,1.425,0.945,1.425,1.92z M113.0075,27.74c0,0.27-0.135,0.36-0.36,0.36l-5.34,0c-0.27,0-0.39-0.09-0.39-0.42l0-9.585c0-0.24,0.12-0.375,0.36-0.375l1.2,0c0.27,0,0.375,0.105,0.375,0.39l0,8.385l3.795,0c0.255,0,0.36,0.12,0.36,0.345l0,0.9z M117.08,18.92c0,0.585-0.51,0.945-1.005,0.945s-1.02-0.33-1.02-0.93s0.495-0.96,1.02-0.96c0.51,0,1.005,0.345,1.005,0.945z M116.99,27.725c0,0.27-0.12,0.375-0.375,0.375l-1.05,0c-0.27,0-0.39-0.105-0.39-0.375l0-6.555c0-0.255,0.15-0.345,0.39-0.345l1.05,0c0.24,0,0.375,0.075,0.375,0.345l0,6.555z M124.7075,25.955c0,1.575-1.365,2.325-2.895,2.325c-0.78,0-1.635-0.225-2.31-0.525c-0.135-0.06-0.18-0.15-0.18-0.24c0-0.045,0.015-0.09,0.03-0.135l0.24-0.765c0.045-0.15,0.12-0.21,0.21-0.21c0.045,0,0.09,0,0.165,0.03c0.66,0.27,1.365,0.465,1.89,0.465c0.66,0,1.11-0.3,1.11-0.795c0-0.42-0.285-0.645-0.9-0.885l-1.185-0.45c-0.855-0.315-1.545-0.975-1.545-1.995c0-1.47,1.38-2.145,2.715-2.145c0.72,0,1.425,0.12,2.175,0.45c0.12,0.06,0.18,0.12,0.18,0.21c0,0.045-0.015,0.09-0.03,0.15l-0.255,0.81c-0.03,0.105-0.105,0.165-0.21,0.165c-0.045,0-0.105-0.015-0.15-0.03c-0.495-0.195-1.14-0.36-1.62-0.36c-0.63,0-0.945,0.345-0.945,0.69c0,0.33,0.165,0.54,0.735,0.765l1.35,0.555c0.795,0.33,1.425,0.945,1.425,1.92z M131.45,27.65c0,0.15-0.075,0.225-0.225,0.285c-0.465,0.195-1.08,0.345-1.68,0.345c-0.765,0-1.425-0.195-1.8-0.63c-0.465-0.525-0.48-1.14-0.48-2.235l0-3.345l-0.705,0c-0.285,0-0.33-0.06-0.33-0.375l0-0.57c0-0.18,0.09-0.3,0.27-0.3l0.765,0l0-1.635c0-0.255,0.135-0.33,0.375-0.36l1.08-0.135l0.075,0c0.195,0,0.285,0.105,0.285,0.33l0,1.8l1.695,0c0.18,0,0.285,0.06,0.285,0.255l0,0.705c0,0.18-0.12,0.285-0.3,0.285l-1.68,0l0,3.435c0,0.45,0.03,0.78,0.195,1.02c0.135,0.195,0.345,0.315,0.705,0.315c0.375,0,0.69-0.09,0.96-0.18c0.06-0.015,0.105-0.03,0.15-0.03c0.105,0,0.165,0.06,0.195,0.18l0.15,0.75c0.015,0.045,0.015,0.06,0.015,0.09z"/></svg>
