<svg width="16" height="16" viewBox="0 0 16 16" fill="none" xmlns="http://www.w3.org/2000/svg">
<path d="M9.875 14.75V11C9.875 10.8343 9.80915 10.6753 9.69194 10.5581C9.57473 10.4409 9.41576 10.375 9.25 10.375H6.75C6.58424 10.375 6.42527 10.4409 6.30806 10.5581C6.19085 10.6753 6.125 10.8343 6.125 11V14.75C6.125 14.9158 6.05915 15.0748 5.94194 15.192C5.82473 15.3092 5.66576 15.375 5.5 15.375H1.75C1.58424 15.375 1.42527 15.3092 1.30806 15.192C1.19085 15.0748 1.125 14.9158 1.125 14.75V7.52348C1.1264 7.43699 1.14509 7.35165 1.17998 7.27248C1.21486 7.19332 1.26523 7.12194 1.32812 7.06255L7.57812 1.38286C7.69334 1.27745 7.84384 1.21899 8 1.21899C8.15616 1.21899 8.30666 1.27745 8.42187 1.38286L14.6719 7.06255C14.7348 7.12194 14.7851 7.19332 14.82 7.27248C14.8549 7.35165 14.8736 7.43699 14.875 7.52348V14.75C14.875 14.9158 14.8092 15.0748 14.6919 15.192C14.5747 15.3092 14.4158 15.375 14.25 15.375H10.5C10.3342 15.375 10.1753 15.3092 10.0581 15.192C9.94085 15.0748 9.875 14.9158 9.875 14.75Z" fill="#020051" stroke="#020051" stroke-linecap="round" stroke-linejoin="round"/>
</svg>
