<svg width="9" height="10" viewBox="0 0 9 10" fill="none" xmlns="http://www.w3.org/2000/svg">
<path d="M5.07392 5.00002L8.44579 1.63322C8.51057 1.55429 8.54368 1.45408 8.53867 1.35209C8.53366 1.2501 8.49089 1.15362 8.41869 1.08141C8.34649 1.00921 8.25 0.966442 8.14801 0.961433C8.04602 0.956424 7.94582 0.98953 7.86688 1.05431L4.50009 4.42619L1.13329 1.05431C1.05436 0.98953 0.954151 0.956424 0.852161 0.961433C0.750171 0.966442 0.653691 1.00921 0.581486 1.08141C0.509281 1.15362 0.466515 1.2501 0.461506 1.35209C0.456497 1.45408 0.489603 1.55429 0.554385 1.63322L3.92626 5.00002L0.554385 8.36681C0.478099 8.44383 0.435303 8.54786 0.435303 8.65627C0.435303 8.76467 0.478099 8.8687 0.554385 8.94572C0.632036 9.0208 0.735824 9.06277 0.843838 9.06277C0.951852 9.06277 1.05564 9.0208 1.13329 8.94572L4.50009 5.57384L7.86688 8.94572C7.94454 9.0208 8.04832 9.06277 8.15634 9.06277C8.26435 9.06277 8.36814 9.0208 8.44579 8.94572C8.52208 8.8687 8.56487 8.76467 8.56487 8.65627C8.56487 8.54786 8.52208 8.44383 8.44579 8.36681L5.07392 5.00002Z" fill="#787878"/>
</svg>
